<?xml version="1.0" encoding="utf-8"?>
<!-- Generator: Adobe Illustrator 22.0.1, SVG Export Plug-In . SVG Version: 6.00 Build 0)  -->
<svg version="1.1" xmlns="http://www.w3.org/2000/svg" xmlns:xlink="http://www.w3.org/1999/xlink" x="0px" y="0px"
	 viewBox="0 0 2006.8 265.2" style="enable-background:new 0 0 2006.8 265.2;" xml:space="preserve">
<style type="text/css">
	.st0{fill:#FFFFFF;}
	.st1{fill:none;}
	.st2{fill:#F1B828;}
</style>
<g id="Suffolk_University_Boston">
	<g>
		<path class="st0" d="M235.7,161.7c-12.3,0-24.5-2.6-35.6-8.2l-2-33.6h7.4c1.6,10.1,2.9,17.4,8,24.2s13.1,10.2,21.3,10.2
			c13.7,0,22.5-9.2,22.5-19.4c0-9.1-5.5-14.5-15-19.3l-21.8-11.1C212.6,100.6,200,94,200,77.5c0-15.5,12.1-28.9,35-28.9
			c11.2,0,22.2,2.6,32.3,7.4l1.2,30.4h-7.2c-1.9-21.2-14.3-30.5-27.2-30.5c-10.7,0-19.1,6.3-19.1,16.2c0,6.9,3.1,12.6,14.5,18.1
			l20.7,10.2c8.2,3.9,22.8,11.1,22.8,29.5C273,151.4,253.6,161.7,235.7,161.7z"/>
		<path class="st0" d="M393.9,57.8c-15,0.1-15,10.8-15,16.8v51.7c0,5.5,0,15.2-7.4,23.7c-8.9,10.1-22.8,11.8-31.5,11.8
			c-13.1,0-27.7-4.1-34.2-15.3c-3.8-6.7-3.8-14.2-3.8-18.8V66.1c0-6.1-0.6-8.3-6.1-8.3h-8.9v-6.6h47.4v6.6h-10.2
			c-5.5,0-6.3,2-6.3,8.3v59c0,9.1,0,28.6,25,28.6c14.7,0,28-8.3,28-25.7V74.6c0-11.4-3.2-16.8-16.6-16.8v-6.6h39.7V57.8z"/>
		<path class="st0" d="M489,87.7c-1-7.7-3.1-15.3-7.7-21.9c-5.5-7.9-15-8-19-8h-17.8c-5.5,0-7,0.7-7,7.6v34.9h8.5
			c16.2,0,16.4-15.6,16.4-20.6h6.7v49.5h-6.7c0.1-15-4.7-22.3-16.8-22.3h-8v37.5c0,6,0.6,8.2,6.3,8.2h13.6v6.6h-50.8v-6.6h8.8
			c5.5,0,6.3-2.2,6.3-8.2V66.1c0-6.1-0.7-8.3-6.3-8.3h-8.8v-6.6h86.7l2.3,36.5H489z"/>
		<path class="st0" d="M592.2,87.7c-1-7.7-3.1-15.3-7.7-21.9c-5.5-7.9-15-8-19-8h-17.8c-5.5,0-7,0.7-7,7.6v34.9h8.5
			c16.2,0,16.4-15.6,16.4-20.6h6.7v49.5h-6.7c0.1-15-4.7-22.3-16.8-22.3h-8v37.5c0,6,0.6,8.2,6.3,8.2h13.6v6.6h-50.8v-6.6h8.8
			c5.5,0,6.3-2.2,6.3-8.2V66.1c0-6.1-0.7-8.3-6.3-8.3h-8.8v-6.6h86.7l2.3,36.5H592.2z"/>
		<path class="st0" d="M662.7,161.7c-9.1,0-20.6-1-31.7-10.8s-19.3-25-19.3-46c0-27.9,15.9-56.4,50.1-56.4
			c40.1,0,51.2,34.7,51.2,56.8C713.1,133.1,696.9,161.7,662.7,161.7z M662,55.9c-30.1,0-31.7,35.3-31.7,49.2
			c0,18.7,3.8,49.3,32.4,49.3c29.9,0,31.8-34.3,31.8-50.5C694.5,82.6,689.1,55.9,662,55.9z"/>
		<path class="st0" d="M813.2,159.1h-88.6v-6.6h8.8c5.5,0,6.3-2.2,6.3-8.2V66.1c0-6.1-0.7-8.3-6.3-8.3h-8.8v-6.6h51.2v6.6h-14
			c-5.5,0-6.3,2-6.3,8.3v78.5c0,6.3,1.8,7.9,7,7.9H781c16.4,0,23.5-10.1,28.3-34.2h6.7L813.2,159.1z"/>
		<path class="st0" d="M890.7,159.1v-6.6h7.6c3.8,0,7.4-0.1,7.4-3.9c0-1.5-1.2-3.4-1.6-3.9l-27.2-40l-17.1,17.8v21.9
			c0,6,0.6,8.2,6.3,8.2h8.8v6.6h-46v-6.6h8.8c5.5,0,6.3-2.2,6.3-8.2V66.1c0-6.1-0.7-8.3-6.3-8.3H829v-6.6h46v6.6h-8.8
			c-5.5,0-6.3,2-6.3,8.3v46l38.3-40.1c1.8-1.8,4.2-4.4,4.2-7.6c0-6.4-7.3-6.6-13.9-6.6v-6.6h44.8v6.6c-5.3,0.3-12.4,0.7-24.2,13.3
			c-0.3,0.4-1.9,2-2.2,2.5l-19.9,20.6l32.8,47.9c0.1,0.1,0.4,0.7,0.9,1.2c4.5,6.9,6.7,9.2,17.4,9.3v6.6H890.7z"/>
		<path class="st0" d="M1097.5,57.8c-15,0.1-15,10.8-15,16.8v51.7c0,5.5,0,15.2-7.4,23.7c-8.9,10.1-22.8,11.8-31.5,11.8
			c-13.1,0-27.7-4.1-34.2-15.3c-3.8-6.7-3.8-14.2-3.8-18.8V66.1c0-6.1-0.6-8.3-6.1-8.3h-8.9v-6.6h47.4v6.6h-10.2
			c-5.5,0-6.3,2-6.3,8.3v59c0,9.1,0,28.6,25,28.6c14.7,0,28-8.3,28-25.7V74.6c0-11.4-3.2-16.8-16.6-16.8v-6.6h39.7V57.8z"/>
		<path class="st0" d="M1223.9,57.8c-14.6,0.1-14.6,10.8-14.6,16.8v85.8h-8.6l-66-90.4h-0.3v66c0,5.7,0,16.5,15,16.5h5.3v6.6h-43.5
			v-6.6c15.2-0.1,15.2-10.7,15.2-16.5V61.4c-2.5-2.9-5.5-3.6-15.2-3.6v-6.6h27.7l62,85.7h0.3V74.6c0-5.7,0-16.8-14.9-16.8h-5.3v-6.6
			h42.8V57.8z"/>
		<path class="st0" d="M1236.2,159.1v-6.6h9.8c5.7,0,6.3-2.2,6.3-8.2V66.1c0-6.1-0.6-8.3-6.3-8.3h-9.8v-6.6h48.2v6.6h-9.9
			c-5.5,0-6.3,2-6.3,8.3v78.3c0,6,0.6,8.2,6.3,8.2h9.9v6.6H1236.2z"/>
		<path class="st0" d="M1407.1,57.8c-7.3,0-10.9,0.6-16.5,15l-34.5,88.9h-5.7l-36.9-93c-4.2-10.5-7.9-10.9-12.7-10.9h-2.3v-6.6h43.4
			v6.6h-6.1c-3.8,0-8.5,0.4-8.5,4.4c0,1.8,0.7,3.8,1,4.5l28.8,72l24.2-63.7c0.7-1.9,1.8-5.4,1.8-7.4c0-6.6-4.7-9.8-10.9-9.8h-3.4
			v-6.6h38.4V57.8z"/>
		<path class="st0" d="M1509.8,159.1h-90.2v-6.6h8.9c5.5,0,6.1-2.2,6.1-8.2V66.1c0-6.1-0.6-8.3-6.1-8.3h-8.9v-6.6h86.7l2.2,36.8
			h-6.6c-3.4-20.7-9.9-30.2-27.2-30.2h-16.4c-7.4,0-7.9,1.9-7.9,8v34.5h7.9c16.9,0,17.2-14,17.4-20.4h6.6v49.1h-6.6
			c0.3-17.4-7-22-17.5-22h-7.7v37.5c0,7.4,1.9,8.2,7.7,8.2h15.3c25.7,0,29.8-21.2,31.5-33.3h6.6L1509.8,159.1z"/>
		<path class="st0" d="M1607.2,159.1l-20-39c-5-9.6-9.3-11.4-16.9-11.4h-8.8v35.6c0,6,0.6,8.2,6.3,8.2h8.8v6.6h-46v-6.6h8.8
			c5.5,0,6.3-2.2,6.3-8.2V66.1c0-6.1-0.6-8.3-6.3-8.3h-8.8v-6.6h51.4c2.6,0,13.6,0.1,22,4.1c10.4,4.8,15.5,15.2,15.5,24.7
			c0,4.5-1,22.5-27.3,26.7v0.3c4.7,1.6,6.4,3.1,11.5,12.8l12.4,23.4c5,9.3,7.3,9.3,11.7,9.3h2.5v6.6H1607.2z M1578.8,57.8h-10.9
			c-5.7,0-6.4,2.6-6.4,7.4v36.9h15c13.7,0,25-2.9,25-22.6C1601.5,64.9,1594.9,57.8,1578.8,57.8z"/>
		<path class="st0" d="M1682.9,161.7c-12.3,0-24.5-2.6-35.6-8.2l-2-33.6h7.4c1.6,10.1,2.9,17.4,8,24.2c5.1,6.9,13.1,10.2,21.3,10.2
			c13.7,0,22.5-9.2,22.5-19.4c0-9.1-5.5-14.5-15-19.3l-21.8-11.1c-7.9-4.1-20.4-10.7-20.4-27.2c0-15.5,12.1-28.9,35-28.9
			c11.2,0,22.2,2.6,32.3,7.4l1.2,30.4h-7.2c-1.9-21.2-14.3-30.5-27.2-30.5c-10.7,0-19.1,6.3-19.1,16.2c0,6.9,3.1,12.6,14.5,18.1
			l20.7,10.2c8.2,3.9,22.8,11.1,22.8,29.5C1720.3,151.4,1700.9,161.7,1682.9,161.7z"/>
		<path class="st0" d="M1735.5,159.1v-6.6h9.8c5.7,0,6.3-2.2,6.3-8.2V66.1c0-6.1-0.6-8.3-6.3-8.3h-9.8v-6.6h48.2v6.6h-9.9
			c-5.5,0-6.3,2-6.3,8.3v78.3c0,6,0.6,8.2,6.3,8.2h9.9v6.6H1735.5z"/>
		<path class="st0" d="M1885.3,92.2c-1.8-12.4-5.3-34.5-25.8-34.5c-4.7,0-7,0.7-7,8v78.5c0,6,0.6,8.2,6.3,8.2h10.1v6.6H1820v-6.6
			h10.2c5.5,0,6.3-2.2,6.3-8.2V65.1c0-3.5,0-7.3-6.6-7.3c-19.3,0-24.7,20.4-26.3,34.5h-6.7l2.3-41h90.4l2.3,41H1885.3z"/>
		<path class="st0" d="M2006.8,57.8c-6.4,0-10.4,1.2-16.9,12.8l-24.1,43.1v30.7c0,6,0.6,8.2,6.3,8.2h9.8v6.6h-48.2v-6.6h9.9
			c5.5,0,6.3-2.2,6.3-8.2V115L1918.1,66c-5.3-8.2-6.3-8.2-12.4-8.2v-6.6h41.9v6.6h-6c-2.2,0-7.4,0-7.4,3.6c0,2,1.8,4.8,2.2,5.5
			l24.8,38.4l19-33.6c0.4-1,1.9-3.6,1.9-6.3c0-7.7-7.2-7.7-10.4-7.7h-2v-6.6h37.1V57.8z"/>
	</g>
</g>
<g id="White_Shield">
	<g>
		<path class="st0" d="M117.2,59.3C117.2,59.3,117.2,59.3,117.2,59.3L117.2,59.3L117.2,59.3z"/>
		<path class="st0" d="M21.4,59.3L21.4,59.3L21.4,59.3C21.5,59.3,21.4,59.3,21.4,59.3z"/>
	</g>
	<g>
		<path class="st1" d="M82,119.3c2.7,0,5.5,0.3,8.8,0.8c2.3,0.3,5,0.6,7.9,0.8c2.3,0.2,4.7,0.3,7.2,0.3c7,0,12.7-0.8,15.5-1.2V63.3
			l-1-1.6l-0.8-1.3v1.3v55.4c0,0-5.9,0.8-14.2,0.8c-2.9,0-6.1-0.1-9.4-0.4c-5.6-0.4-10-1-13.7-1c-1.7,0-3.2,0.1-4.6,0.4l-0.2,2.8
			C78.8,119.5,80.3,119.3,82,119.3z"/>
		<path class="st1" d="M68.3,47.7l0.1,5.3c0,0,4.5-0.7,11.8,2.3l2.1-4.5C82.3,50.7,78,47.2,68.3,47.7z"/>
		<path class="st1" d="M79.8,47.1C83,24.5,61.8,15.9,59.2,13.6c2.5,3.7,9.1,11.5,7.1,17.9c-1.3-1.2-2.5-2-3.9-2.5
			c1.3,2.2,3.2,5.5,0.8,11.5c-0.2,0.6,0.2-6.3-2.8-9.4c-2.8-2.9-4.2-6.3-4.9-10.1c1,1.3,6.2,5.4,8.7,5.9
			c-3.1-9.3-11.1-9.1-17.9-17.6c-0.5-0.6-0.8-1.2-1.2-2c0.4,7.4,6.4,11.4,9.9,18.4c3.1,6.2,0.9,10,0.9,10s-1.1-2.7-2.6-4.4
			c-1.7-2-3.4-2.5-4.6-2c2.9,5,0.9,10.3,5.4,15.7C59.5,51.8,61.3,40.5,79.8,47.1z"/>
		<path class="st1" d="M56.4,116.6c-3.7,0-8.1,0.6-13.7,1c-3.3,0.3-6.5,0.4-9.4,0.4c-8.3,0-14.2-0.8-14.2-0.8V61.8v-1.1l-0.7,1.1
			l-0.9,1.5V120c2.8,0.4,8.5,1.2,15.5,1.2c2.4,0,4.9-0.1,7.2-0.3c2.9-0.2,5.6-0.6,7.9-0.8c3.3-0.4,6.1-0.8,8.8-0.8
			c1.5,0,3,0.1,4.3,0.4L61,117C59.5,116.7,58,116.6,56.4,116.6z"/>
		<path class="st1" d="M123.7,121.9c0,0-7.6,1.6-17.8,1.6c-2.3,0-4.8-0.1-7.4-0.3c-6.9-0.5-12.1-1.6-16.5-1.6
			c-1.7,0-3.2,0.1-4.7,0.5l-0.2,3.1h0.5H125V61.8h-1.1l-0.8,0l0.6,0.9V121.9z"/>
		<path class="st1" d="M56.9,121.6c-4.4,0-9.6,1-16.5,1.6c-2.6,0.2-5,0.3-7.4,0.3c-10.2,0-17.8-1.6-17.8-1.6V62.7l0.5-0.9l-1.7,0
			l-0.3,0v63.5h47.9l-0.2-3.2C59.9,121.8,58.5,121.6,56.9,121.6z"/>
		<path class="st0" d="M125.7,59.3h-1.8l-2.3,0l1.6,2.4l0.8,0h1.1v63.5H77.5H77l-0.2,2.4h0.6h48.2c1,0,1.8-0.8,1.8-1.7V61
			C127.4,60.1,126.7,59.3,125.7,59.3z"/>
		<path class="st0" d="M13.7,125.3V61.8l0.3,0h0h0h0h0l1.7,0l1.5-2.4l-3.2,0l-1.6,0c-0.5,0-1.2,0.7-1.2,1.7v65
			c0,0.9,0.8,1.7,1.8,1.7h48.7l-0.2-2.4H13.7z"/>
		<path class="st0" d="M119.5,60.5l0.8,1.3l1,1.6V120c-2.8,0.4-8.5,1.2-15.5,1.2c-2.4,0-4.9-0.1-7.2-0.3c-2.9-0.2-5.6-0.6-7.9-0.8
			c-3.3-0.4-6.1-0.8-8.8-0.8c-1.7,0-3.1,0.1-4.5,0.4l-0.2,2.4c1.5-0.4,3-0.5,4.7-0.5c4.4,0,9.6,1,16.5,1.6c2.6,0.2,5,0.3,7.4,0.3
			c10.2,0,17.8-1.6,17.8-1.6V62.7l-0.6-0.9l-1.6-2.4l-2-3.1c0,0,0,0,0,0v3.1V60.5z"/>
		<path class="st0" d="M15.2,62.7v59.3c0,0,7.6,1.6,17.8,1.6c2.3,0,4.8-0.1,7.4-0.3c6.9-0.5,12.1-1.6,16.5-1.6c1.6,0,3,0.1,4.4,0.5
			l-0.2-2.4c-1.3-0.2-2.7-0.4-4.3-0.4c-2.7,0-5.5,0.3-8.8,0.8c-2.3,0.3-5,0.6-7.9,0.8c-2.3,0.2-4.7,0.3-7.2,0.3
			c-7,0-12.7-0.8-15.5-1.2V63.3l0.9-1.5l0.7-1.1v-1.4v-3l-1.9,3l-1.5,2.4L15.2,62.7z"/>
		<path class="st1" d="M82.2,114.3C82.2,114.3,82.2,114.3,82.2,114.3c2.6,0,5.3,0.3,8.6,0.6c1.7,0.2,3.4,0.3,5.3,0.5
			c3,0.2,6.1,0.4,9.2,0.4c5.2,0,9.5-0.3,11.9-0.6V61.8v-2.3v-0.1v0c0,0-0.1,0-0.1,0c-4.8,1.3-10.3,2-15.9,2c-5.5,0-10.9-0.7-15.7-2
			c-0.4-0.1-0.9-0.2-1.3-0.4c-1-0.3-1.9-0.6-2.8-0.8l-3.8,56.5C79.1,114.4,80.6,114.3,82.2,114.3z"/>
		<path class="st1" d="M54.3,59c-0.4,0.1-0.8,0.2-1.3,0.4c-4.7,1.3-10.1,2-15.7,2c-5.6,0-11.1-0.7-15.9-2c0,0-0.1,0-0.1,0v0v0.1v2.3
			v53.3c2.4,0.2,6.7,0.6,11.9,0.6c3.2,0,6.3-0.1,9.2-0.4c1.9-0.2,3.6-0.3,5.3-0.5c3.2-0.3,6-0.6,8.6-0.6c1.6,0,3,0.1,4.4,0.3
			l-4.1-56.3C55.9,58.5,55.2,58.7,54.3,59z"/>
		<path class="st0" d="M19.1,60.7v1.1v55.4c0,0,5.9,0.8,14.2,0.8c2.9,0,6.1-0.1,9.4-0.4c5.6-0.4,10-1,13.7-1c1.6,0,3.1,0.1,4.6,0.4
			l-0.2-2.4c-1.4-0.2-2.8-0.3-4.4-0.3c-2.6,0-5.3,0.3-8.6,0.6c-1.7,0.2-3.4,0.3-5.3,0.5c-3,0.2-6.1,0.4-9.2,0.4
			c-5.2,0-9.5-0.3-11.9-0.6V61.8v-2.3v-0.1v0c0,0,0.1,0,0.1,0c4.8,1.3,10.3,2,15.9,2c5.5,0,10.9-0.7,15.7-2c0.4-0.1,0.9-0.2,1.3-0.4
			c0.8-0.3,1.6-0.5,2.4-0.7l-0.1-0.9l-0.8-1.2c-0.7,0.2-1.4,0.4-2.2,0.6C48.6,58.3,42.9,59,37.4,59c-6.7,0-13.2-1-18.3-2.8v0.1v3
			V60.7z"/>
		<path class="st0" d="M81.6,58.2c0.9,0.2,1.8,0.5,2.8,0.8c0.4,0.1,0.9,0.2,1.3,0.4c4.7,1.3,10.1,2,15.7,2c5.6,0,11.1-0.7,15.9-2
			c0,0,0.1,0,0.1,0v0v0.1v2.3v53.3c-2.4,0.2-6.7,0.6-11.9,0.6c-3.2,0-6.3-0.1-9.2-0.4c-1.9-0.2-3.6-0.3-5.3-0.5
			c-3.2-0.3-6-0.6-8.6-0.6c0,0,0,0,0,0c-1.6,0-3.1,0.1-4.5,0.4l-0.2,2.4c1.5-0.3,3-0.4,4.6-0.4c3.7,0,8.1,0.6,13.7,1
			c3.3,0.3,6.5,0.4,9.4,0.4c8.3,0,14.2-0.8,14.2-0.8V61.8v-1.3v-1.1v-3.1v-0.1c-5.1,1.8-11.6,2.8-18.3,2.8c-5.5,0-11.2-0.7-16.3-2.2
			c-0.9-0.3-1.8-0.5-2.6-0.8c-0.4,0.9-0.7,1.6-0.8,1.9L81.6,58.2z"/>
		<g>
			<path class="st1" d="M85.3,49.9c-0.8,1.6-2.1,4.3-2.9,6.1c-0.4,0.9-0.7,1.6-0.8,1.9l0,0.3l-3.8,56.5l-0.2,2.4l-0.2,2.8l-0.2,2.4
				l-0.2,3.1l-0.2,2.4l-2,30.1c-0.2,3.3-2.5,5.8-5.5,5.8c-3,0-5.2-2.4-5.4-5.8l-2.2-30.1l-0.2-2.4l-0.2-3.2l-0.2-2.4L61,117
				l-0.2-2.4l-4.1-56.3l-0.1-0.9l-0.8-1.2l-3.9-5.9c0.4-0.5,1.8-1.3,2.4-1.5c-1.3-1-2-1.7-3-3c-0.5-0.7-0.9-1.4-1.2-2.1
				c-0.8,0.1-1.4,0.3-2,0.4c-3.4,0.7-11.6,2.1-18.9,2.1c-6.9,0-13.5-0.3-24.9-3.5V136c0,0.3,0.1,2.6,0.9,6c0.8,3.3,2.3,8.3,5.5,13.4
				c2.1,3.5,8.3,12.6,19.6,22.4c5.4,4.6,11.3,8.8,17.5,12.4c6.8,3.9,14,7.2,21.5,9.7c7.5-2.5,14.7-5.8,21.5-9.7
				c6.2-3.6,12.1-7.7,17.5-12.4c11.3-9.7,17.5-18.9,19.6-22.4c3.2-5.3,4.8-10.4,5.6-13.7c0.7-3.3,0.8-5.4,0.8-5.7V42.6
				c-11.4,3.3-18,3.5-24.9,3.5c-7.3,0-15.5-1.4-18.9-2.1c-1.9-0.4-4.9-0.9-7.7-1.2c-0.1,1.7-0.3,3.6-0.7,5.5
				C83.7,49.1,85.3,49.9,85.3,49.9z"/>
			<path class="st1" d="M68.3,47.7l0.1,5.3c0,0,4.5-0.7,11.8,2.3l2.1-4.5C82.3,50.7,78,47.2,68.3,47.7z"/>
			<path class="st1" d="M68.4,55.1l0,1.3l0.9,60.1l0,2.3l0,2.6l0,2.3l0,1.6l0,2.4l0.5,32.8c1.4-0.4,2.2-1.5,2.4-3.1l2-29.7l0.2-2.4
				l0.2-2.2l0.2-2.6l0.2-2.7l0.2-2.5l4-57.6l0-0.5C75.2,54.8,70.5,54.6,68.4,55.1z"/>
			<path class="st0" d="M135.2,38.1c-0.5,0-1.1,0.1-1.7,0.3c-10.9,3.2-17.3,3.5-24,3.5s-14.7-1.3-18-2c-2.1-0.5-5.6-1-8.7-1.3
				c0.1,1.4,0.2,2.8,0.1,4.3c2.8,0.3,5.9,0.8,7.7,1.2c3.4,0.7,11.6,2.1,18.9,2.1c6.9,0,13.5-0.3,24.9-3.5V136c0,0.2-0.1,2.4-0.8,5.7
				c-0.8,3.3-2.3,8.4-5.6,13.7c-2.1,3.5-8.3,12.6-19.6,22.4c-5.4,4.6-11.3,8.8-17.5,12.4c-6.8,3.9-14,7.2-21.5,9.7
				c-7.5-2.5-14.7-5.8-21.5-9.7c-6.2-3.6-12.1-7.7-17.5-12.4C19,168,12.9,158.8,10.7,155.3c-3.2-5.2-4.7-10.2-5.5-13.4
				c-0.8-3.4-0.9-5.7-0.9-6V42.6c11.4,3.3,18,3.5,24.9,3.5c7.3,0,15.5-1.4,18.9-2.1c0.6-0.1,1.3-0.3,2-0.4c-0.6-1.3-1-2.7-1.3-4.2
				c-0.6,0.1-1.2,0.2-1.6,0.3c-3.3,0.7-11.2,2-18,2s-13.1-0.3-24-3.5c-0.6-0.2-1.2-0.3-1.7-0.3C1,38.1,0,40,0,41.8
				C0,42.9,0,136,0,136s0.2,10.4,7,21.6c7,11.5,26.9,35.2,62.3,46.8c35.4-11.5,55.2-35.2,62.3-46.8c6.9-11.2,7-21.6,7-21.6
				s0-93.1,0-94.2C138.7,40,137.7,38.1,135.2,38.1z"/>
			<path class="st2" d="M48.6,29.3c1.2-0.5,2.9,0,4.6,2c1.5,1.7,2.6,4.4,2.6,4.4s2.2-3.8-0.9-10c-3.4-7-9.4-11-9.9-18.4
				c0.4,0.7,0.7,1.3,1.2,2c6.8,8.5,14.8,8.3,17.9,17.6c-2.5-0.5-7.7-4.6-8.7-5.9c0.7,3.8,2.1,7.2,4.9,10.1c1.8,1.8,2.4,4.9,2.6,7.1
				c0.3,0,0.7,0,1,0c1.1-4.5-0.5-7.3-1.6-9.2c1.4,0.5,2.6,1.4,3.9,2.5c2-6.4-4.6-14.1-7.1-17.9c2.3,2,18.1,8.6,20.6,24.6
				c0.9,0.1,1.9,0.1,3,0.3C81,18.3,59.6,14,56.3,6.4c-0.5,3.3,0,7.6,1.1,9.2c-3.6-2.2-7-4.8-9.2-7.8C47,6.1,44,2.1,43.9,0
				c-5.9,12.4,8.9,24.3,10,29.1c-2.7-3.8-8.7-5-12.2-3.2c1.5,0.5,2.8,1.2,3.8,2.8c2.2,3.2,2.5,7.1,3.3,10.7c0.7-0.1,1.5-0.3,2.3-0.4
				C50.3,35.7,50.5,32.5,48.6,29.3z"/>
			<path class="st2" d="M79.8,47.1c-18.5-6.5-20.2,4.7-25.8-2c-0.5-0.6-0.9-1.2-1.3-1.9c-0.9,0.1-1.8,0.3-2.6,0.4
				c0.3,0.7,0.7,1.4,1.2,2.1c1,1.3,1.7,2,3,3c-0.6,0.2-2,1-2.4,1.5l3.9,5.9l0.8,1.2l0.1,0.9l4.1,56.3L61,117l0.2,2.7l0.2,2.4
				l0.2,3.2l0.2,2.4l2.2,30.1c0.2,3.3,2.4,5.8,5.4,5.8c3,0,5.3-2.4,5.5-5.8l2-30.1l0.2-2.4l0.2-3.1l0.2-2.4l0.2-2.8l0.2-2.4
				l3.8-56.5l0-0.3c0.1-0.3,0.4-1,0.8-1.9c0.8-1.8,2.1-4.5,2.9-6.1c0,0-1.6-0.8-3.1-1.6c0.4-1.9,0.6-3.8,0.7-5.5
				c-1-0.1-1.9-0.2-2.7-0.3C80.1,44,80,45.5,79.8,47.1z M79.3,57.6l-4,57.6l-0.2,2.5l-0.2,2.7l-0.2,2.6l-0.2,2.2l-0.2,2.4l-2,29.7
				c-0.2,1.5-1,2.7-2.4,3.1l-0.5-32.8l0-2.4l0-1.6l0-2.3l0-2.6l0-2.3l-0.9-60.1l0-1.3c2.2-0.5,6.8-0.3,10.9,1.9L79.3,57.6z
				 M82.3,50.7l-2.1,4.5c-7.3-3-11.8-2.3-11.8-2.3l-0.1-5.3C78,47.2,82.3,50.7,82.3,50.7z"/>
			<path class="st2" d="M63.2,40.5c0.3-0.8,0.6-1.6,0.8-2.3c-0.3,0-0.7,0-1,0C63.1,39.7,63.1,40.7,63.2,40.5z"/>
			<path class="st2" d="M52.7,43.2c-0.8-1.4-1.3-2.8-1.6-4.1c-0.8,0.1-1.6,0.3-2.3,0.4c0.3,1.4,0.7,2.8,1.3,4.2
				C50.9,43.5,51.8,43.3,52.7,43.2z"/>
			<path class="st2" d="M80.1,42.5c0.8,0.1,1.8,0.2,2.7,0.3c0.1-1.5,0-3-0.1-4.3c-1.1-0.1-2.1-0.2-3-0.3C80,39.6,80.1,41,80.1,42.5z
				"/>
		</g>
	</g>
	<polygon class="st2" points="39.7,136.3 42.5,144.8 51.4,144.8 44.2,150.1 46.9,158.6 39.7,153.3 32.5,158.6 35.2,150.1 28,144.8 
		36.9,144.8 	"/>
	<polygon class="st2" points="99,136.3 101.8,144.8 110.8,144.8 103.5,150.1 106.3,158.6 99,153.3 91.8,158.6 94.6,150.1 
		87.3,144.8 96.3,144.8 	"/>
</g>
<g id="Layer_5">
	<g>
		<path class="st2" d="M243.7,262.1c-5.4,1.6-8.2,1.6-11.9,1.6h-32.1v-3.8h5.1c3.2,0,3.7-1.3,3.7-4.8v-45.6c0-3.6-0.3-4.8-3.7-4.8
			h-5.1v-3.8h31.5c3.9,0,7.8,0.2,12,1.8c5,2,9.3,7.1,9.3,13.3c0,4.3-2.2,8.7-6.4,11.6c-2.9,2.1-5.4,2.9-7.3,3.4v0.2
			c2.6,0.4,6,0.9,9.6,2.9c3.8,2.1,7.3,6.8,7.3,12.6C255.6,254.5,250.3,260.1,243.7,262.1z M230,204.7h-8.7c-2.4,0-3.6,0.6-3.6,3.6
			v21.3h11.9c8.8,0,12.3-5.4,12.3-12.8C241.9,209.9,239.1,204.7,230,204.7z M230,233.4h-12.3v21.7c0,2.9,0,4.8,3.6,4.8h10.3
			c5.7,0,13.3-1.6,13.3-13.1C244.8,235.8,236.7,233.4,230,233.4z"/>
		<path class="st2" d="M297.3,265.2c-5.3,0-12-0.6-18.4-6.3c-6.5-5.7-11.2-14.5-11.2-26.8c0-16.2,9.3-32.8,29.2-32.8
			c23.4,0,29.8,20.2,29.8,33.1C326.6,248.5,317.2,265.2,297.3,265.2z M296.9,203.6c-17.5,0-18.4,20.6-18.4,28.6
			c0,10.9,2.2,28.7,18.9,28.7c17.4,0,18.5-20,18.5-29.4C315.8,219.1,312.7,203.6,296.9,203.6z"/>
		<path class="st2" d="M361.6,265.2c-7.1,0-14.3-1.5-20.7-4.8l-1.2-19.6h4.3c0.9,5.9,1.7,10.1,4.7,14.1c3,4,7.7,6,12.4,6
			c8,0,13.1-5.4,13.1-11.3c0-5.3-3.2-8.4-8.8-11.2l-12.7-6.5c-4.6-2.4-11.9-6.2-11.9-15.8c0-9,7.1-16.8,20.4-16.8
			c6.5,0,12.9,1.5,18.8,4.3l0.7,17.7h-4.2c-1.1-12.3-8.3-17.8-15.8-17.8c-6.2,0-11.1,3.7-11.1,9.4c0,4,1.8,7.3,8.4,10.5l12.1,6
			c4.8,2.3,13.3,6.5,13.3,17.2C383.4,259.2,372.1,265.2,361.6,265.2z"/>
		<path class="st2" d="M446.7,224.7c-1-7.2-3.1-20.1-15-20.1c-2.7,0-4.1,0.4-4.1,4.7v45.7c0,3.5,0.3,4.8,3.7,4.8h5.9v3.8h-28.4v-3.8
			h6c3.2,0,3.7-1.3,3.7-4.8v-46.2c0-2,0-4.3-3.8-4.3c-11.2,0-14.4,11.9-15.3,20.1h-3.9l1.4-23.9h52.6l1.4,23.9H446.7z"/>
		<path class="st2" d="M490.7,265.2c-5.3,0-12-0.6-18.4-6.3c-6.5-5.7-11.2-14.5-11.2-26.8c0-16.2,9.3-32.8,29.2-32.8
			c23.4,0,29.8,20.2,29.8,33.1C520,248.5,510.5,265.2,490.7,265.2z M490.2,203.6c-17.5,0-18.4,20.6-18.4,28.6
			c0,10.9,2.2,28.7,18.9,28.7c17.4,0,18.5-20,18.5-29.4C509.2,219.1,506,203.6,490.2,203.6z"/>
		<path class="st2" d="M597,204.7c-8.5,0.1-8.5,6.3-8.5,9.8v50h-5l-38.4-52.6h-0.2v38.4c0,3.3,0,9.6,8.8,9.6h3.1v3.8h-25.3v-3.8
			c8.8-0.1,8.8-6.2,8.8-9.6v-43.4c-1.4-1.7-3.2-2.1-8.8-2.1v-3.8h16.2l36.1,49.9h0.2v-36.3c0-3.3,0-9.8-8.7-9.8h-3.1v-3.8H597V204.7
			z"/>
	</g>
</g>
</svg>
